<svg width="50" height="50" viewBox="0 0 50 50" fill="none" xmlns="http://www.w3.org/2000/svg">
<path d="M0 25C0 38.8077 11.1923 50 25 50C38.8077 50 50 38.8077 50 25C50 11.1923 38.8077 0 25 0C11.1923 0 0 11.1923 0 25ZM18.5436 16.841C18.5436 16.331 18.7462 15.8419 19.1068 15.4812C19.4675 15.1206 19.9566 14.9179 20.4667 14.9179H33.159C33.669 14.9179 34.1581 15.1206 34.5188 15.4812C34.8794 15.8419 35.0821 16.331 35.0821 16.841V29.5333C35.0821 30.0434 34.8794 30.5325 34.5188 30.8932C34.1581 31.2538 33.669 31.4564 33.159 31.4564C32.6489 31.4564 32.1598 31.2538 31.7992 30.8932C31.4385 30.5325 31.2359 30.0434 31.2359 29.5333V21.4821L18.2 34.5179C18.0239 34.7069 17.8116 34.8584 17.5757 34.9635C17.3398 35.0686 17.0852 35.1252 16.827 35.1297C16.5688 35.1343 16.3123 35.0868 16.0728 34.9901C15.8334 34.8933 15.6158 34.7494 15.4332 34.5668C15.2506 34.3842 15.1067 34.1666 15.0099 33.9272C14.9132 33.6877 14.8657 33.4312 14.8703 33.173C14.8748 32.9148 14.9314 32.6602 15.0365 32.4243C15.1416 32.1884 15.2931 31.9761 15.4821 31.8L28.5154 18.7641H20.4667C19.9566 18.7641 19.4675 18.5615 19.1068 18.2008C18.7462 17.8402 18.5436 17.3511 18.5436 16.841Z" fill="#D094F9"/>
</svg>
