<svg width="133" height="26" viewBox="0 0 133 26" fill="none" xmlns="http://www.w3.org/2000/svg">
<path d="M0.48999 25V4H5.67999L13.33 16.45L9.27999 16.42L17.02 4H22.03V25H16.3V19.39C16.3 17.59 16.34 15.97 16.42 14.53C16.52 13.09 16.68 11.66 16.9 10.24L17.56 12.01L12.19 20.32H10.21L4.95999 12.01L5.61999 10.24C5.83999 11.58 5.98999 12.96 6.06999 14.38C6.16999 15.78 6.21999 17.45 6.21999 19.39V25H0.48999Z" fill="#D094F9"/>
<path d="M26.7937 25V9.01H32.3737V25H26.7937ZM29.5837 5.98C28.5637 5.98 27.7737 5.75 27.2137 5.29C26.6537 4.81 26.3737 4.14 26.3737 3.28C26.3737 2.48 26.6537 1.83 27.2137 1.33C27.7937 0.809996 28.5837 0.549995 29.5837 0.549995C30.5837 0.549995 31.3637 0.789996 31.9237 1.27C32.5037 1.73 32.7937 2.4 32.7937 3.28C32.7937 4.08 32.5037 4.73 31.9237 5.23C31.3437 5.73 30.5637 5.98 29.5837 5.98Z" fill="#D094F9"/>
<path d="M36.7504 25V9.01H41.9704L42.2104 12.25L41.0704 12.61C41.2704 11.85 41.6604 11.18 42.2404 10.6C42.8204 10 43.5104 9.53 44.3104 9.19C45.1104 8.85 45.9504 8.68 46.8304 8.68C48.0304 8.68 49.0404 8.93 49.8604 9.43C50.7004 9.91 51.3304 10.64 51.7504 11.62C52.1904 12.58 52.4104 13.76 52.4104 15.16V25H46.8304V15.61C46.8304 15.09 46.7504 14.66 46.5904 14.32C46.4304 13.96 46.1904 13.69 45.8704 13.51C45.5504 13.33 45.1704 13.25 44.7304 13.27C44.3904 13.27 44.0704 13.32 43.7704 13.42C43.4904 13.52 43.2404 13.68 43.0204 13.9C42.8004 14.1 42.6304 14.33 42.5104 14.59C42.4104 14.85 42.3604 15.14 42.3604 15.46V25H39.5704C38.8904 25 38.3104 25 37.8304 25C37.3704 25 37.0104 25 36.7504 25Z" fill="#D094F9"/>
<path d="M62.17 25.33C60.83 25.33 59.63 24.98 58.57 24.28C57.53 23.56 56.71 22.58 56.11 21.34C55.51 20.08 55.21 18.64 55.21 17.02C55.21 15.4 55.51 13.97 56.11 12.73C56.73 11.47 57.57 10.48 58.63 9.76C59.69 9.04 60.9 8.68 62.26 8.68C62.96 8.68 63.63 8.78 64.27 8.98C64.91 9.18 65.48 9.46 65.98 9.82C66.5 10.18 66.93 10.6 67.27 11.08C67.63 11.56 67.86 12.07 67.96 12.61L66.67 12.97V2.8H72.28V25H67.21L66.82 21.43L67.93 21.64C67.85 22.16 67.64 22.64 67.3 23.08C66.96 23.52 66.53 23.91 66.01 24.25C65.51 24.59 64.92 24.85 64.24 25.03C63.58 25.23 62.89 25.33 62.17 25.33ZM63.76 20.77C64.4 20.77 64.95 20.62 65.41 20.32C65.87 20 66.22 19.57 66.46 19.03C66.7 18.47 66.82 17.8 66.82 17.02C66.82 16.24 66.7 15.57 66.46 15.01C66.22 14.43 65.87 14 65.41 13.72C64.95 13.42 64.4 13.27 63.76 13.27C63.12 13.27 62.57 13.42 62.11 13.72C61.65 14 61.3 14.43 61.06 15.01C60.82 15.57 60.7 16.24 60.7 17.02C60.7 17.8 60.82 18.47 61.06 19.03C61.3 19.57 61.65 20 62.11 20.32C62.57 20.62 63.12 20.77 63.76 20.77Z" fill="#D094F9"/>
<path d="M76.6326 25V4H86.1426C87.6226 4 88.8726 4.21 89.8926 4.63C90.9326 5.05 91.7226 5.64 92.2626 6.4C92.8026 7.16 93.0726 8.06 93.0726 9.1C93.0726 10.34 92.7826 11.37 92.2026 12.19C91.6226 13.01 90.7826 13.56 89.6826 13.84L89.5926 13.27C90.5126 13.49 91.3126 13.85 91.9926 14.35C92.6926 14.83 93.2326 15.43 93.6126 16.15C93.9926 16.85 94.1826 17.66 94.1826 18.58C94.1826 19.66 93.9826 20.6 93.5826 21.4C93.2026 22.2 92.6526 22.87 91.9326 23.41C91.2326 23.95 90.4126 24.35 89.4726 24.61C88.5526 24.87 87.5426 25 86.4426 25H76.6326ZM82.1826 20.23H86.2626C86.7226 20.23 87.1026 20.16 87.4026 20.02C87.7226 19.86 87.9626 19.63 88.1226 19.33C88.3026 19.03 88.3926 18.67 88.3926 18.25C88.3926 17.85 88.3026 17.52 88.1226 17.26C87.9426 17 87.6826 16.8 87.3426 16.66C87.0026 16.5 86.5926 16.42 86.1126 16.42H82.1826V20.23ZM82.1826 12.31H85.1826C85.6626 12.31 86.0626 12.24 86.3826 12.1C86.7026 11.96 86.9426 11.76 87.1026 11.5C87.2626 11.22 87.3426 10.9 87.3426 10.54C87.3426 10 87.1626 9.57 86.8026 9.25C86.4426 8.93 85.8726 8.77 85.0926 8.77H82.1826V12.31Z" fill="#D094F9"/>
<path d="M105.193 25.3C103.493 25.3 101.973 24.94 100.633 24.22C99.2928 23.5 98.2428 22.52 97.4828 21.28C96.7228 20.04 96.3428 18.61 96.3428 16.99C96.3428 15.37 96.7228 13.94 97.4828 12.7C98.2428 11.46 99.2928 10.48 100.633 9.76C101.973 9.04 103.493 8.68 105.193 8.68C106.893 8.68 108.403 9.04 109.723 9.76C111.063 10.48 112.113 11.46 112.873 12.7C113.633 13.94 114.013 15.37 114.013 16.99C114.013 18.61 113.633 20.04 112.873 21.28C112.113 22.52 111.063 23.5 109.723 24.22C108.403 24.94 106.893 25.3 105.193 25.3ZM105.193 20.59C105.793 20.59 106.333 20.44 106.813 20.14C107.313 19.82 107.693 19.39 107.953 18.85C108.233 18.29 108.373 17.67 108.373 16.99C108.373 16.27 108.233 15.64 107.953 15.1C107.693 14.56 107.313 14.14 106.813 13.84C106.333 13.52 105.793 13.36 105.193 13.36C104.573 13.36 104.023 13.52 103.543 13.84C103.063 14.14 102.683 14.57 102.403 15.13C102.123 15.67 101.983 16.29 101.983 16.99C101.983 17.67 102.123 18.29 102.403 18.85C102.683 19.39 103.063 19.82 103.543 20.14C104.023 20.44 104.573 20.59 105.193 20.59Z" fill="#D094F9"/>
<path d="M126.007 25L123.367 20.53L115.177 9.01H121.777L124.237 13.15L126.487 16.24L132.577 25H126.007ZM114.937 25L121.447 15.67L124.387 19.15L121.507 25H114.937ZM125.887 18.37L122.977 14.89L125.797 9.01H132.367L125.887 18.37Z" fill="#D094F9"/>
</svg>
